<svg xmlns="http://www.w3.org/2000/svg" width="12" height="12" viewBox="0 0 12 12">
    <g fill="none" fill-rule="evenodd" >
      <path d="M0 .003h12.633v12.633H0z"/>
      <path fill="#555555" d="M5.458 3.064q.185.58.363 1.174.185.586.355 1.235.177.648.347 1.374.178.726.355 1.567h-.694q-.062-.347-.132-.687-.061-.34-.131-.68H4.238q-.077.34-.139.68-.062.34-.123.687h-.672q.17-.841.347-1.567Q3.83 6.12 4 5.473q.177-.649.355-1.235.185-.595.37-1.174zm-.378.788q-.193.64-.371 1.289-.178.648-.34 1.328h1.413q-.154-.68-.332-1.328-.177-.649-.37-1.29zM7.681 3.064h.695v5.35h-.695z"/>
      <path fill="#555555" d="M10.374.63H1.26a.686.686 0 00-.685.684v9.115c0 .378.307.685.685.685h9.114a.686.686 0 00.685-.685V1.314a.686.686 0 00-.685-.685zm.23 9.799a.229.229 0 01-.23.229H1.26a.229.229 0 01-.23-.23V1.315c0-.126.103-.229.23-.229h9.114c.127 0 .23.103.23.23zm0 0"/>
      <path fill="#555555" d="M1.157.001H.466A.467.467 0 000 .468v.69c0 .257.209.466.466.466h.69a.466.466 0 00.467-.466v-.69A.467.467 0 001.157 0zM1.157 4.933H.466A.467.467 0 000 5.399v.69c0 .257.209.466.466.466h.69a.466.466 0 00.467-.466V5.4a.467.467 0 00-.466-.466zM1.157 10.076H.466a.467.467 0 00-.466.466v.69c0 .258.209.467.466.467h.69a.466.466 0 00.467-.466v-.691a.467.467 0 00-.466-.466zM11.179.001h-.691a.467.467 0 00-.466.467v.69c0 .257.209.466.466.466h.69a.466.466 0 00.467-.466v-.69A.467.467 0 0011.179 0zM11.179 4.933h-.691a.467.467 0 00-.466.466v.69c0 .257.209.466.466.466h.69a.466.466 0 00.467-.466V5.4a.467.467 0 00-.466-.466zM11.179 10.076h-.691a.467.467 0 00-.466.466v.69c0 .258.209.467.466.467h.69a.466.466 0 00.467-.466v-.691a.467.467 0 00-.466-.466zM6.168.001h-.691a.467.467 0 00-.466.467v.69c0 .257.209.466.466.466h.69a.466.466 0 00.467-.466v-.69A.467.467 0 006.168 0zM6.168 10.076h-.691a.467.467 0 00-.466.466v.69c0 .258.209.467.466.467h.69a.466.466 0 00.467-.466v-.691a.467.467 0 00-.466-.466z"/>
    </g>
</svg>
