<svg xmlns="http://www.w3.org/2000/svg" width="24" height="24" viewBox="0 0 24 24">
    <g fill="none" fill-rule="evenodd">
      <path d="M0 0h24v24H0z"/>
      <path fill="#8a8a8a" d="M10.37 5.816q.351 1.1.688 2.229.352 1.115.675 2.347.337 1.232.66 2.61.337 1.379.675 2.978h-1.32q-.118-.66-.25-1.306-.117-.645-.249-1.29H8.052q-.147.645-.264 1.29-.118.646-.235 1.306H6.277q.323-1.6.66-2.978.337-1.378.66-2.61.337-1.232.675-2.347.352-1.13.704-2.23zm-.72 1.496q-.366 1.217-.704 2.449-.337 1.232-.645 2.523h2.684q-.293-1.291-.63-2.523-.338-1.232-.705-2.45zM14.593 5.816h1.32V15.98h-1.32z"/>
      <path fill="#8a8a8a" d="M19.71 1.19H2.393c-.718 0-1.301.583-1.301 1.3v17.317c0 .718.583 1.302 1.301 1.302H19.71c.718 0 1.301-.584 1.301-1.302V2.491c0-.718-.583-1.302-1.301-1.302zm.435 18.617c0 .24-.195.435-.435.435H2.393a.435.435 0 01-.435-.435V2.491c0-.24.195-.435.435-.435H19.71c.24 0 .435.194.435.435zm0 0"/>
      <path fill="#8a8a8a" d="M2.198-.003H.885A.886.886 0 000 .882v1.313c0 .488.397.885.885.885h1.313a.886.886 0 00.885-.885V.882a.886.886 0 00-.885-.885zM2.198 9.366H.885A.886.886 0 000 10.25v1.312c0 .488.397.886.885.886h1.313a.886.886 0 00.885-.886v-1.312a.886.886 0 00-.885-.885zM2.198 19.137H.885a.886.886 0 00-.885.885v1.313c0 .488.397.885.885.885h1.313a.886.886 0 00.885-.885v-1.313a.886.886 0 00-.885-.885zM21.238-.003h-1.313a.886.886 0 00-.885.885v1.313c0 .488.397.885.885.885h1.313a.886.886 0 00.885-.885V.882a.886.886 0 00-.885-.885zM21.238 9.366h-1.313a.886.886 0 00-.885.885v1.312c0 .488.397.886.885.886h1.313a.886.886 0 00.885-.886v-1.312a.886.886 0 00-.885-.885zM21.238 19.137h-1.313a.886.886 0 00-.885.885v1.313c0 .488.397.885.885.885h1.313a.886.886 0 00.885-.885v-1.313a.886.886 0 00-.885-.885zM11.718-.003h-1.313a.886.886 0 00-.885.885v1.313c0 .488.397.885.885.885h1.313a.886.886 0 00.885-.885V.882a.886.886 0 00-.885-.885zM11.718 19.137h-1.313a.886.886 0 00-.885.885v1.313c0 .488.397.885.885.885h1.313a.886.886 0 00.885-.885v-1.313a.886.886 0 00-.885-.885z"/>
    </g>
</svg>
